<?xml version="1.0" encoding="UTF-8"?>
<!DOCTYPE svg PUBLIC "-//W3C//DTD SVG 1.1//EN" "http://www.w3.org/Graphics/SVG/1.1/DTD/svg11.dtd">
<!-- Creator: CorelDRAW X7 -->
<svg xmlns="http://www.w3.org/2000/svg" xml:space="preserve" width="120mm" height="112mm" version="1.1" style="shape-rendering:geometricPrecision; text-rendering:geometricPrecision; image-rendering:optimizeQuality; fill-rule:evenodd; clip-rule:evenodd"
viewBox="0 0 12000 11200"
 xmlns:xlink="http://www.w3.org/1999/xlink">
 <defs>
  <style type="text/css">
   <![CDATA[
    .fil0 {fill:#6BDB21}
   ]]>
  </style>
 </defs>
 <g id="Capa_x0020_1">
  <metadata id="CorelCorpID_0Corel-Layer"/>
  <path class="fil0" d="M2595 2295c922,-972 2161,-1464 3404,-1467 1242,3 2481,495 3404,1467 456,480 791,1032 1005,1617 50,-56 103,-110 160,-160 126,-113 283,-216 451,-281 -249,-605 -611,-1175 -1088,-1678 -1066,-1123 -2497,-1690 -3932,-1693 -1435,3 -2867,570 -3933,1693 -477,503 -839,1073 -1087,1678 167,65 324,168 451,281 56,50 109,104 159,160 215,-585 549,-1137 1006,-1617zm3511 5999c327,-112 390,-541 396,-887 16,-855 32,-1714 -80,-2562 -112,-848 -357,-1691 -826,-2407 -195,178 -270,457 -265,721 6,263 81,520 142,776 313,1318 250,2723 -180,4007 224,217 518,452 813,352zm-1869 -2584c-166,0 -517,-60 -517,109 0,184 397,93 655,107 126,7 114,18 182,89 91,93 165,167 257,259 59,59 210,252 292,252 104,0 11,12 71,-38 4,-4 10,-11 14,-14l24 -30c-38,-142 -183,-164 -231,-285 -58,-147 32,-685 -38,-781 -37,-51 -119,-50 -151,18 -23,48 -42,417 -42,505 -98,-27 -462,-395 -462,-462l27 -517c-276,-185 -181,56 -244,326 -172,-115 -264,-302 -462,-407l-86 104c45,150 596,594 711,765zm1277 544c0,195 -51,347 -54,516 -189,0 -322,55 -544,55 -1077,0 -1874,-1041 -1603,-2202 207,-17 206,-54 516,-54 910,0 1685,774 1685,1685zm2295 -2852c193,0 603,-71 603,127 0,215 -463,108 -764,124 -148,8 -134,21 -214,104 -105,109 -191,195 -300,303 -68,69 -245,294 -341,294 -121,0 -12,14 -82,-45 -5,-4 -12,-12 -16,-16l-29 -35c44,-165 215,-192 270,-333 68,-171 -37,-799 45,-912 43,-59 138,-58 176,21 27,56 49,487 49,590 115,-31 539,-461 539,-540l-31 -603c323,-216 212,66 285,381 201,-134 308,-353 540,-476l100 122c-53,175 -697,694 -830,894zm-1492 634c0,228 59,406 64,603 220,0 375,64 634,64 1258,0 2188,-1216 1873,-2571 -242,-20 -242,-63 -603,-63 -1063,0 -1968,904 -1968,1967zm-3528 6670c-64,-156 -129,-311 -343,-592l-1396 -2010c-224,-323 -438,-796 -457,-1185l-140 -2812c-24,-479 1003,-77 1174,1089l187 1276c52,514 924,1667 1454,1767l-640 -1494c-112,-263 -105,-498 125,-628 142,-81 365,-68 517,119l1654 2043c333,445 396,623 405,960l31 1116c31,1093 -2395,777 -2571,351zm6422 0c64,-156 129,-311 343,-592l1396 -2010c224,-323 438,-796 457,-1185l140 -2812c24,-479 -1003,-77 -1174,1089l-187 1276c-52,514 -924,1667 -1454,1767l640 -1494c112,-263 105,-498 -125,-628 -142,-81 -365,-68 -517,119l-1654 2043c-333,445 -396,623 -405,960l-31 1116c-31,1093 2395,777 2571,351z"/>
 </g>
</svg>
