<?xml version="1.0" encoding="UTF-8"?>
<!DOCTYPE svg PUBLIC "-//W3C//DTD SVG 1.1//EN" "http://www.w3.org/Graphics/SVG/1.1/DTD/svg11.dtd">
<!-- Creator: CorelDRAW X7 -->
<svg xmlns="http://www.w3.org/2000/svg" xml:space="preserve" width="120mm" height="112mm" version="1.1" style="shape-rendering:geometricPrecision; text-rendering:geometricPrecision; image-rendering:optimizeQuality; fill-rule:evenodd; clip-rule:evenodd"
viewBox="0 0 12000 11200"
 xmlns:xlink="http://www.w3.org/1999/xlink">
 <defs>
  <style type="text/css">
   <![CDATA[
    .fil0 {fill:#FFCC29}
   ]]>
  </style>
 </defs>
 <g id="Capa_x0020_1">
  <metadata id="CorelCorpID_0Corel-Layer"/>
  <path class="fil0" d="M3764 8017l0 0c184,247 130,598 -116,784l-2466 1860c-246,186 -600,132 -784,-116l0 0c-184,-248 -130,-599 116,-784l2466 -1860c246,-186 600,-132 784,116zm4144 -3326c681,917 489,2212 -428,2893 -917,680 -2212,489 -2893,-429 -680,-917 -489,-2212 428,-2892 918,-681 2213,-489 2893,428zm784 -581c1001,1350 719,3256 -631,4257 -1350,1002 -3256,720 -4257,-630 -1002,-1350 -720,-3256 630,-4258 1350,-1001 3256,-719 4258,631zm-2802 601c0,82 15,73 17,148 -51,13 -76,37 -111,70 -94,85 -88,59 -178,183 -40,55 -30,76 -90,92 -11,-44 -215,-309 -258,-367 -199,-268 -333,-77 -333,5 0,70 12,94 43,137l252 340c206,275 166,186 127,390 -6,36 -5,39 -10,89 -5,59 14,48 -26,72 -101,61 -41,-99 -267,127l-395 395c-39,39 -260,208 -131,337 110,110 220,19 296,-58 79,-80 433,-461 505,-481l61 315c-1,45 -42,81 -70,120l-249 343c-79,104 -136,148 -136,258 0,82 134,273 333,5 43,-58 247,-323 258,-367l33 0c25,92 186,245 270,306 265,193 608,197 872,-2 158,-120 244,-271 289,-304l272 369c48,65 72,127 176,134 87,5 160,-60 160,-157 0,-125 -429,-579 -454,-682 -9,-36 43,-237 43,-338 74,7 133,93 218,177 206,206 387,466 549,394 44,-20 88,-74 88,-127 0,-118 -201,-275 -325,-399 -64,-64 -117,-116 -181,-180 -194,-195 -116,-177 -349,-177 0,-441 -200,-155 265,-770 43,-57 146,-169 146,-249 0,-107 -144,-284 -336,-24l-272 369 -169 -193c-84,-84 -113,-104 -210,-169 65,-135 11,-275 -70,-356 -203,-204 -653,-88 -653,225zm-1239 -3610c2486,-861 5199,457 6060,2944 1514,4375 -2216,6562 -4267,7055 520,-22 1046,-119 1564,-299 2871,-993 4393,-4126 3399,-6997 -993,-2872 -4126,-4394 -6998,-3400 -2871,994 -4393,4127 -3399,6998 122,352 276,684 458,994l596 -443c-140,-248 -261,-513 -357,-792 -861,-2487 457,-5200 2944,-6060z"/>
 </g>
</svg>
