<?xml version="1.0" encoding="UTF-8"?>
<!DOCTYPE svg PUBLIC "-//W3C//DTD SVG 1.1//EN" "http://www.w3.org/Graphics/SVG/1.1/DTD/svg11.dtd">
<!-- Creator: CorelDRAW X7 -->
<svg xmlns="http://www.w3.org/2000/svg" xml:space="preserve" width="120mm" height="120mm" version="1.1" style="shape-rendering:geometricPrecision; text-rendering:geometricPrecision; image-rendering:optimizeQuality; fill-rule:evenodd; clip-rule:evenodd"
viewBox="0 0 12000 12000"
 xmlns:xlink="http://www.w3.org/1999/xlink">
 <defs>
  <style type="text/css">
   <![CDATA[
    .fil0 {fill:#177299}
   ]]>
  </style>
 </defs>
 <g id="Capa_x0020_1">
  <metadata id="CorelCorpID_0Corel-Layer"/>
  <path class="fil0" d="M5206 7824l695 -490c10,-342 9,-709 8,-966 56,56 116,103 182,137 142,74 297,137 445,197 68,27 136,54 205,81 -14,160 -31,362 -47,551 -23,271 -114,281 -202,340l-929 656c-259,133 -547,-350 -357,-506zm1472 -2930c-33,303 -6,549 84,774 125,61 405,197 664,324 247,120 246,233 270,328l292 1103c48,333 -529,462 -604,151l-207 -825c-109,-46 -725,-269 -1000,-412 -268,-139 -443,-596 -458,-879l-53 -984c-46,-522 470,-827 892,-535 114,79 225,164 331,256 479,415 713,525 1399,352 -47,155 -93,297 -131,441 -114,326 -980,345 -1479,-94zm-1213 -62c-234,52 -433,192 -702,487 -47,-155 -87,-299 -134,-440 -66,-261 352,-618 851,-720 -31,104 -42,217 -33,330l18 343zm-1468 -287l440 1421c35,116 -30,241 -146,277l-760 235c-116,36 -241,-30 -277,-146l-439 -1422c-36,-116 29,-240 145,-276l760 -235c117,-36 241,30 277,146zm514 416l115 372c10,30 -8,63 -38,72l-199 62c-31,9 -63,-8 -72,-38l-116 -373c-9,-30 8,-63 39,-72l199 -62c30,-9 63,8 72,39zm3047 -3460c-2486,-861 -5199,457 -6060,2944 -1514,4374 2216,6562 4267,7055 -521,-23 -1047,-119 -1564,-299 -2871,-993 -4393,-4126 -3400,-6997 994,-2872 4127,-4394 6998,-3400 2871,994 4393,4127 3400,6998 -755,2179 -3686,3627 -5553,2988l0 -1483 1653 0 0 -1482 1322 0 0 -1519 2135 0c133,-2086 -1127,-4088 -3198,-4805zm-723 1509c17,329 -228,608 -553,630 -326,22 -621,-241 -638,-569 -16,-321 239,-608 559,-630 331,-23 616,233 632,569z"/>
 </g>
</svg>
