<?xml version="1.0" encoding="UTF-8"?>
<!DOCTYPE svg PUBLIC "-//W3C//DTD SVG 1.1//EN" "http://www.w3.org/Graphics/SVG/1.1/DTD/svg11.dtd">
<!-- Creator: CorelDRAW X7 -->
<svg xmlns="http://www.w3.org/2000/svg" xml:space="preserve" width="120mm" height="112mm" version="1.1" style="shape-rendering:geometricPrecision; text-rendering:geometricPrecision; image-rendering:optimizeQuality; fill-rule:evenodd; clip-rule:evenodd"
viewBox="0 0 12000 11200"
 xmlns:xlink="http://www.w3.org/1999/xlink">
 <defs>
  <style type="text/css">
   <![CDATA[
    .fil0 {fill:#B00C77}
   ]]>
  </style>
 </defs>
 <g id="Capa_x0020_1">
  <metadata id="CorelCorpID_0Corel-Layer"/>
  <path class="fil0" d="M2933 2077c831,-875 1948,-1318 3067,-1321 1119,3 2236,446 3067,1321 1385,1459 1529,3643 467,5253l110 66 326 -286 12 -9c119,-88 267,-123 405,-79 22,-5 45,-7 68,-7 795,-1761 500,-3902 -912,-5389 -960,-1012 -2250,-1524 -3543,-1526 -1293,2 -2583,514 -3543,1526 -1412,1487 -1707,3628 -912,5389 23,0 46,2 68,7 138,-44 286,-9 405,79l12 9 326 286 110 -66c-1062,-1610 -918,-3794 467,-5253zm4085 2884c564,-181 1015,796 1128,1204 221,799 187,864 361,970l1176 714 518 -453c140,-104 146,123 21,244 -104,101 -221,214 -263,287 -34,162 133,321 351,138l-2 -446c35,-214 216,-323 196,-145l54 720c-118,151 -502,294 -699,303 -73,3 -195,-58 -308,-114 263,275 243,766 -12,968 -217,171 -1946,645 -2309,822 117,85 196,66 281,182 229,313 12,826 -411,734 -140,-31 -745,-291 -1100,-393 -355,102 -960,362 -1100,393 -423,92 -640,-421 -411,-734 85,-116 164,-97 281,-182 -363,-177 -2092,-651 -2309,-822 -255,-202 -275,-693 -12,-968 -113,56 -235,117 -308,114 -197,-9 -581,-152 -699,-303l54 -720c-20,-178 161,-69 196,145l-2 446c218,183 385,24 351,-138 -42,-73 -159,-186 -263,-287 -125,-121 -119,-348 21,-244l518 453 1176 -714c174,-106 140,-171 361,-970 113,-408 564,-1385 1128,-1204 248,282 612,461 1018,461 406,0 770,-179 1018,-461zm173 2835l280 -628c98,250 197,378 289,454l1349 569c-146,-8 -320,21 -522,101 -221,106 -442,202 -666,299l-1342 587c201,-177 1332,-910 1475,-1047 -74,-53 -733,-202 -876,-228l13 -107zm-2382 0l-280 -628c-98,250 -197,378 -289,454l-1349 569c146,-8 320,21 522,101 221,106 442,202 666,299l1342 587c-201,-177 -1332,-910 -1475,-1047 74,-53 733,-202 876,-228l-13 -107zm1191 -4919c601,0 1088,487 1088,1088 0,601 -487,1089 -1088,1089 -601,0 -1088,-488 -1088,-1089 0,-601 487,-1088 1088,-1088z"/>
 </g>
</svg>
