<?xml version="1.0" encoding="UTF-8"?>
<!DOCTYPE svg PUBLIC "-//W3C//DTD SVG 1.1//EN" "http://www.w3.org/Graphics/SVG/1.1/DTD/svg11.dtd">
<!-- Creator: CorelDRAW X7 -->
<svg xmlns="http://www.w3.org/2000/svg" xml:space="preserve" width="112mm" height="112mm" version="1.1" style="shape-rendering:geometricPrecision; text-rendering:geometricPrecision; image-rendering:optimizeQuality; fill-rule:evenodd; clip-rule:evenodd"
viewBox="0 0 11200 11200"
 xmlns:xlink="http://www.w3.org/1999/xlink">
 <defs>
  <style type="text/css">
   <![CDATA[
    .fil0 {fill:#F06B0C}
   ]]>
  </style>
 </defs>
 <g id="Capa_x0020_1">
  <metadata id="CorelCorpID_0Corel-Layer"/>
  <path class="fil0" d="M8588 2544c428,0 776,347 776,775 0,429 -348,776 -776,776 -429,0 -776,-347 -776,-776 0,-428 347,-775 776,-775zm-5091 7173c-1062,-542 -1914,-1492 -2304,-2718 -1360,-4282 2313,-6312 4316,-6739 -506,9 -1019,90 -1525,251 -2811,892 -4365,3894 -3473,6705 893,2810 3895,4365 6705,3472 1257,-399 2262,-1219 2910,-2256 477,-763 56,-1688 -159,-2109 -958,-1754 -3354,-3659 -5962,-3630 6724,2522 3436,9298 -508,7024zm7150 -2374c306,-885 383,-1856 183,-2821 -198,-957 -643,-2014 -1878,-3056 1790,2690 379,3601 398,3616 441,349 1252,1511 1297,2261z"/>
 </g>
</svg>
